PathFileType	4	(X/Y/Z)	1103211_Cal01.trc	
DataRate	CameraRate	NumFrames	NumMarkers	Units	OrigDataRate	OrigDataStartFrame	OrigNumFrames
300	300	4	77	mm	300	170	337
Frame#	Time	CLAV			STRN			RSHO			LSHO			C7			T10			RBAK			RASI			LASI			RPSI			LPSI			LGTR			RGTR			LHJC			RHJC			LMFC			RMFC			LLTP			RLTP			LMTP			RMTP			LANK			RANK			LMMA			RMMA			LHEE			RHEE			LMT5			RMT5			LTOE			RTOE			RELB			RWRA			RWRB			RFIN			LELB			LWRB			LWRA			LFIN			RFP1			RFP2			RFP3			RFM1			RFM2			RFM3			RFA1			RFA2			RFA3			LFP1			LFP2			LFP3			LFM1			LFM2			LFM3			LFA1			LFA2			LFA3			LKNE			RKNE			RTP1			RTP2			RTP3			RTA1			RTA2			RTA3			LTP1			LTP2			LTP3			LTA1			LFHD			LBHD			RFHD			RBHD			LUPA			LFRA			RUPA			RFRA			
		X1	Y1	Z1	X2	Y2	Z2	X3	Y3	Z3	X4	Y4	Z4	X5	Y5	Z5	X6	Y6	Z6	X7	Y7	Z7	X8	Y8	Z8	X9	Y9	Z9	X10	Y10	Z10	X11	Y11	Z11	X12	Y12	Z12	X13	Y13	Z13	X14	Y14	Z14	X15	Y15	Z15	X16	Y16	Z16	X17	Y17	Z17	X18	Y18	Z18	X19	Y19	Z19	X20	Y20	Z20	X21	Y21	Z21	X22	Y22	Z22	X23	Y23	Z23	X24	Y24	Z24	X25	Y25	Z25	X26	Y26	Z26	X27	Y27	Z27	X28	Y28	Z28	X29	Y29	Z29	X30	Y30	Z30	X31	Y31	Z31	X32	Y32	Z32	X33	Y33	Z33	X34	Y34	Z34	X35	Y35	Z35	X36	Y36	Z36	X37	Y37	Z37	X38	Y38	Z38	X39	Y39	Z39	X40	Y40	Z40	X41	Y41	Z41	X42	Y42	Z42	X43	Y43	Z43	X44	Y44	Z44	X45	Y45	Z45	X46	Y46	Z46	X47	Y47	Z47	X48	Y48	Z48	X49	Y49	Z49	X50	Y50	Z50	X51	Y51	Z51	X52	Y52	Z52	X53	Y53	Z53	X54	Y54	Z54	X55	Y55	Z55	X56	Y56	Z56	X57	Y57	Z57	X58	Y58	Z58	X59	Y59	Z59	X60	Y60	Z60	X61	Y61	Z61	X62	Y62	Z62	X63	Y63	Z63	X64	Y64	Z64	X65	Y65	Z65	X66	Y66	Z66	X67	Y67	Z67	X68	Y68	Z68	X69	Y69	Z69	X70	Y70	Z70	X71	Y71	Z71	X72	Y72	Z72	X73	Y73	Z73	X74	Y74	Z74	X75	Y75	Z75	X76	Y76	Z76	X77	Y77	Z77	

169	0.56000	189.00084	1375.21558	-47.86855	241.13725	1204.24731	-51.13435	88.27281	1424.72546	89.08937	86.95343	1433.36707	-192.33437	49.32030	1429.39673	-46.74373	15.11517	1135.07068	-52.36046	-8.57896	1326.95166	44.53596	179.86867	946.96429	60.61810	175.22749	953.36914	-166.71129	-0.81264	955.46820	-1.00354	-2.32905	954.39111	-99.08119	109.22687	869.13934	-217.81758	110.02574	857.99329	118.57397	103.84665	872.79352	-133.59935	103.62895	868.36414	25.32489	64.06873	466.88284	-84.09856	66.68924	471.56302	-16.35164	72.67714	447.69275	-213.10622	78.50310	450.86597	110.86607	62.66817	438.02618	-93.19719	66.33247	441.10291	-6.98817	57.44090	91.07490	-207.03835	55.90750	87.32175	108.48297	73.29076	98.70210	-121.34669	80.57632	92.84305	24.81909	-14.73150	59.86199	-159.31102	-15.92300	62.98541	60.09406	168.41269	30.83893	-243.63313	165.75719	40.94692	157.62033	213.01466	65.03863	-176.05913	214.50169	65.29004	91.00716	61.67772	1297.35120	347.40863	91.82852	1312.06055	592.46619	58.15996	1247.00757	586.65253	55.55470	1300.32275	666.96356	43.04215	1301.48401	-436.15289	37.18658	1262.53015	-685.25110	69.30505	1324.18054	-679.53589	30.86136	1318.75452	-758.87897	108.32411	762.78162	131.80649	106.50099	669.12219	130.26317	100.45572	577.55939	117.93675	170.38461	818.42432	112.53467	177.42943	717.41022	117.21454	174.36781	625.32336	107.03705	214.70848	771.75970	65.66457	209.24806	671.26050	64.30127	191.38734	581.01770	51.25221	107.61276	769.45447	-230.20128	102.01744	659.62073	-224.28801	93.40369	582.84442	-213.95595	164.91223	825.12714	-211.63271	166.32111	719.05255	-218.13298	159.75723	625.83337	-209.77211	216.47762	769.83783	-159.67177	207.75761	666.35071	-148.44466	187.29460	576.65314	-142.78053	78.42828	485.27679	-209.46678	89.13283	478.95282	108.58565	64.62759	374.13324	128.33414	55.34528	268.92850	125.46900	54.69254	182.69168	114.32674	125.02348	393.09003	63.15988	116.62885	315.54297	62.25757	108.35863	232.85728	64.70882	68.71655	360.11621	-228.98662	65.88165	278.97290	-225.74471	62.46425	193.99701	-216.78548	121.30000	400.67462	-156.27748	NaN	NaN	NaN	73.75005	1608.36157	-128.48204	178.17943	1626.05811	38.65443	186.99580	1634.76917	-109.11327	63.06572	1393.93909	-292.83478	25.89716	1306.70129	-584.39429	58.17722	1337.20947	273.60071	45.32925	1294.07458	431.48145	
170	0.56333	188.99318	1375.21448	-47.89787	241.07921	1204.24353	-51.10399	88.22861	1424.73145	89.09552	86.91666	1433.37769	-192.35414	49.31712	1429.38489	-46.74077	15.07272	1135.05090	-52.34535	-8.58337	1326.92188	44.51317	179.84724	946.96246	60.60271	175.16188	953.36719	-166.72740	-0.84847	955.42133	-0.98296	-2.38152	954.41254	-99.06310	109.13783	869.11371	-217.82854	110.01337	857.98914	118.54842	103.79231	872.78723	-133.60094	103.60547	868.35773	25.32333	63.92940	466.88800	-84.11198	65.62927	471.62512	-15.82832	72.60321	447.68317	-213.13274	78.49426	450.84433	110.81947	62.86810	437.91605	-93.37196	66.33972	441.09296	-6.98766	57.45815	91.06241	-207.03752	55.90067	87.30830	108.50774	73.27904	98.70535	-121.34795	80.52249	92.87299	24.81300	-14.73640	59.85586	-159.34273	-15.91782	62.94447	60.08905	168.37334	30.82691	-243.64519	165.75336	40.92776	157.63248	212.96385	64.99710	-176.05403	214.50084	65.28233	91.02477	61.64687	1297.28894	347.42252	91.83296	1312.04016	592.48547	58.19113	1246.98315	586.63666	55.57289	1300.31665	666.96985	43.04151	1301.44177	-436.15515	37.17619	1262.46790	-685.26038	69.30316	1324.14404	-679.53436	30.85909	1318.70654	-758.87158	108.31290	762.79761	131.80719	106.44257	669.11469	130.22684	100.45235	577.55768	117.93860	170.35918	818.50110	112.70702	177.41597	717.37274	117.18953	174.36841	625.34412	107.03857	214.69441	771.78198	65.65944	209.19121	671.29230	64.26564	191.36815	581.03241	51.22472	107.13934	769.32666	-229.85600	101.94434	659.57892	-224.28563	93.38783	582.85242	-213.98598	164.90689	825.15765	-211.66035	166.31036	719.07288	-218.17699	159.52933	625.90936	-209.62093	216.46892	769.86023	-159.70802	207.72282	666.41370	-148.45110	187.24828	576.67914	-142.78429	78.36946	485.24100	-209.48723	89.08601	478.95889	108.57176	64.57222	374.12854	128.32747	55.32700	268.91232	125.43583	54.68834	182.66757	114.29787	125.00221	393.10092	63.13100	116.57603	315.53491	62.25598	108.31364	232.87294	64.73233	68.61511	360.09805	-228.99840	65.86450	278.96198	-225.74989	62.46190	193.99770	-216.78627	121.26840	400.70346	-156.27361	NaN	NaN	NaN	73.47960	1608.49951	-128.37334	178.07753	1625.99365	38.64810	187.00490	1634.76587	-109.10649	63.06679	1393.91370	-292.83112	25.92970	1306.66577	-584.41284	58.16924	1337.20178	273.60019	45.32529	1294.05872	431.47501	
171	0.56667	188.99220	1375.22766	-47.83775	241.08290	1204.24927	-51.09599	88.21320	1424.72095	89.09904	86.91069	1433.36780	-192.35536	49.31923	1429.38538	-46.74858	15.08138	1135.04089	-52.33220	-8.58490	1326.93579	44.49457	179.84193	946.94824	60.47060	175.06728	953.37115	-166.83742	-0.87715	955.42816	-1.04353	-2.45092	954.43115	-99.10732	109.15700	869.11926	-217.85640	109.95480	858.00427	118.52902	103.70259	872.79602	-133.69893	103.57846	868.35370	25.22504	63.94798	466.89728	-84.15013	66.57100	471.56595	-16.34682	72.59666	447.66324	-213.15379	78.48109	450.82785	110.82059	62.88962	437.89841	-93.40547	66.29576	441.03952	-7.04597	57.42427	91.04361	-207.05513	55.89433	87.30090	108.48018	73.27631	98.66884	-121.37883	80.35483	92.81808	24.75163	-14.74477	59.83274	-159.35393	-15.88200	62.94516	60.08476	168.28572	30.80888	-243.65074	165.74380	40.93144	157.65265	212.95833	65.01878	-176.10155	214.49883	65.28833	91.05478	61.63452	1297.28784	347.38550	91.83182	1312.00598	592.44781	58.18652	1246.94434	586.63989	55.56581	1300.28687	666.96173	43.07201	1301.43433	-436.13898	37.16862	1262.42737	-685.26825	69.35117	1324.12952	-679.55347	30.86136	1318.68750	-758.87299	108.28484	762.77209	131.76840	106.44131	669.08752	130.19707	100.43040	577.54004	117.89734	170.30968	818.45557	112.60098	177.43791	717.37421	117.11821	174.36151	625.31573	107.02934	214.65929	771.74200	65.60596	209.19316	671.27350	64.26091	191.31654	581.02844	51.18120	107.49831	769.42255	-230.17027	101.87831	659.58795	-224.27647	93.34039	582.83624	-214.00914	164.80753	825.12128	-211.69868	166.29195	719.07770	-218.18364	159.67599	625.81042	-209.82756	216.51628	769.84625	-159.77498	207.66035	666.39105	-148.48006	187.30132	576.69830	-142.81914	78.33563	485.25214	-209.51234	89.08710	478.94672	108.57805	64.57919	374.13321	128.31284	55.31052	268.88611	125.46995	54.67816	182.66435	114.32382	125.01163	393.06757	63.12665	116.57515	315.55029	62.23210	108.33212	232.83388	64.66864	68.59265	360.07578	-229.00618	65.85007	278.95126	-225.75041	62.42929	193.99480	-216.79787	121.28928	400.68475	-156.27696	NaN	NaN	NaN	73.41850	1608.51624	-128.39815	178.02104	1625.95874	38.62933	187.01668	1634.74402	-109.10399	63.06731	1393.89941	-292.86151	25.94585	1306.63147	-584.39093	58.16879	1337.20166	273.60037	45.31252	1294.03662	431.47064	
172	0.57000	188.99968	1375.24634	-47.83897	241.09431	1204.22620	-51.09721	88.22385	1424.72131	89.10884	86.92534	1433.33875	-192.35686	49.30800	1429.40601	-46.74706	15.04044	1135.03418	-52.39168	-8.58839	1326.92383	44.49025	179.79271	946.96460	60.54526	175.09163	953.37683	-166.78670	-0.90515	955.45825	-1.02924	-2.44709	954.36633	-99.10936	109.10301	869.09790	-217.85048	109.98296	857.91772	118.40642	103.72899	872.79156	-133.65697	103.55312	868.35663	25.26717	63.90845	466.86600	-84.18370	66.72928	471.52612	-16.43452	72.55156	447.63519	-213.14754	78.49490	450.82587	110.80974	62.86215	437.87558	-93.39580	66.23288	441.00592	-7.03886	57.41560	91.02438	-207.04878	55.88145	87.27991	108.47450	73.24786	98.67056	-121.34914	80.50073	92.80869	24.82410	-14.75090	59.84484	-159.37746	-15.89855	62.90886	60.07474	168.25954	30.75972	-243.68242	165.75568	40.91603	157.64899	212.96275	65.00448	-176.07240	214.52730	65.24653	91.04332	61.62640	1297.26794	347.38434	91.81017	1311.96619	592.45233	58.18672	1246.90869	586.64349	55.56660	1300.24768	666.93103	43.06985	1301.39673	-436.14276	37.27911	1262.39392	-685.23743	69.38240	1324.09082	-679.54437	30.88213	1318.66418	-758.90912	108.28116	762.78088	131.72684	106.43941	669.10211	130.15930	100.42978	577.56213	117.88513	170.30800	818.46423	112.57220	177.43370	717.39685	117.11630	174.35890	625.32977	106.99966	214.66631	771.75977	65.59315	209.17683	671.26068	64.22554	191.33974	581.04004	51.14090	107.13811	769.28394	-229.86955	102.14600	659.59497	-224.43538	93.29765	582.83368	-213.99654	164.81241	825.12036	-211.70934	166.27165	719.07477	-218.23921	159.71812	625.81726	-209.83809	216.46904	769.82288	-159.81056	207.72987	666.38361	-148.51308	187.29353	576.67572	-142.85234	78.29189	485.20850	-209.51112	89.07619	478.92868	108.53346	64.57776	374.10361	128.30708	55.31815	268.89783	125.46018	54.68129	182.64966	114.29851	125.02217	393.08954	63.11505	116.58624	315.51273	62.22057	108.33588	232.80544	64.65829	68.65540	360.10049	-228.98042	65.80641	278.95242	-225.72588	62.41379	193.95166	-216.77388	121.28758	400.67764	-156.27470	NaN	NaN	NaN	73.69525	1608.35449	-128.50609	178.04378	1625.95166	38.62502	187.02489	1634.69983	-109.09935	62.56635	1393.70288	-292.57141	25.92850	1306.60913	-584.38531	58.18060	1337.18140	273.58008	45.31747	1294.01306	431.44763	
